<svg xmlns="http://www.w3.org/2000/svg" xmlns:xlink="http://www.w3.org/1999/xlink" width="22" height="22" viewBox="0 0 36 36">
  <defs>
    <path id="a" d="M14.117 30.432a.86.86 0 0 0 .033-.234c0-.386-.021-1.665-.021-3.025-4.204.75-5.292-.995-5.626-1.909-.189-.466-1.004-1.908-1.715-2.294-.586-.304-1.423-1.055-.021-1.076 1.317-.02 2.259 1.178 2.572 1.665 1.506 2.457 3.912 1.766 4.874 1.34.146-1.056.585-1.766 1.066-2.172-3.723-.406-7.613-1.807-7.613-8.019 0-1.766.648-3.228 1.715-4.365-.167-.406-.753-2.07.168-4.304 0 0 1.4-.426 4.6 1.665a15.967 15.967 0 0 1 4.184-.548c1.422 0 2.845.183 4.183.548 3.2-2.111 4.602-1.665 4.602-1.665.92 2.234.334 3.898.167 4.304C28.352 11.48 29 12.921 29 14.708c0 6.232-3.911 7.613-7.634 8.019.606.507 1.13 1.482 1.13 3.004 0 2.173-.022 3.918-.022 4.467 0 .073.01.149.03.224A15.525 15.525 0 0 1 18.29 31c-1.447 0-2.847-.198-4.174-.568z"/>
  </defs>
  <g fill="none" fill-rule="evenodd">
    <mask id="b" fill="#fff">
      <use xlink:href="#a"/>
    </mask>
    <use fill="#232344" xlink:href="#a"/>
    <g fill="#232344" mask="url(#b)">
      <path d="M0 0h36v36H0z"/>
    </g>
  </g>
</svg>