
        <svg xmlns="http://www.w3.org/2000/svg" xmlns:xlink="http://www.w3.org/1999/xlink" width="422" height="140" version="1.2" baseProfile="tiny">
            <defs>
                <clipPath id="circleClip">
                    <circle cx="25" cy="56" r="12" />
                </clipPath>
            </defs>
            <g fill="none" stroke="black" stroke-width="1" fill-rule="evenodd" stroke-linecap="square" stroke-linejoin="bevel">
                <g fill="#ffffff" fill-opacity="1" stroke="none" transform="matrix(1,0,0,1,0,0)">
                    <rect x="0" y="0" width="420" height="140"></rect>
                </g>
                <rect x="0" y="0" width="421" height="140" stroke="#eaecef" stroke-width="2"></rect>
                <g transform="matrix(1,0,0,1,0,-3)">
        <g fill="#586069" fill-opacity="1" stroke="none" transform="matrix(1.25,0,0,1.25,18,18)">
            <path vector-effect="none" fill-rule="evenodd" d="M4,9 L3,9 L3,8 L4,8 L4,9 M4,6 L3,6 L3,7 L4,7 L4,6 M4,4 L3,4 L3,5 L4,5 L4,4 M4,2 L3,2 L3,3 L4,3 L4,2 M12,1 L12,13 C12,13.55 11.55,14 11,14 L6,14 L6,16 L4.5,14.5 L3,16 L3,14 L1,14 C0.45,14 0,13.55 0,13 L0,1 C0,0.45 0.45,0 1,0 L11,0 C11.55,0 12,0.45 12,1 M11,11 L1,11 L1,13 L3,13 L3,12 L6,12 L6,13 L11,13 L11,11 M11,1 L2,1 L2,10 L11,10 L11,1"></path>
        </g>
        <g fill="#0366d6" fill-opacity="1" stroke="#0366d6" stroke-opacity="1" stroke-width="1" stroke-linecap="square" stroke-linejoin="bevel" transform="matrix(1,0,0,1,25,0)">
            <a target="_blank" href="https://github.com/ChinaGodMan/UserScripts/">
                <text fill="#0366d6" fill-opacity="1" stroke="none" xml:space="preserve" x="17" y="33" font-family="sans-serif" font-size="18" font-weight="630" font-style="normal">123</text>
            </a>
        </g>
    
        <g transform="matrix(1,0,0,1,0,0)">
            <a target="_blank" href="https://github.com/ChinaGodMan">
                <circle cx="25" cy="56" r="12" stroke="#afb8c1" stroke-width="1.5" fill="none" />
                <image stroke="null" id="svg_1" height="24" width="24" x="13" y="44" clip-path="url(#circleClip)" href="https://avatars.githubusercontent.com/u/96548841?v=4&size=64"/>
            </a>
        </g>
        <g transform="matrix(1,0,0,1,25,0)">
            <a target="_blank" href="https://github.com/ChinaGodMan">
                <text fill="#000000" fill-opacity="1" stroke="none" xml:space="preserve" x="17" y="59.5" font-family="sans-serif" font-size="15" font-weight="540" font-style="normal">ChinaGodMan</text>
            </a>
        </g>
    <g fill="#586069" fill-opacity="1" stroke="#586069" stroke-opacity="1" stroke-width="1" stroke-linecap="square" stroke-linejoin="bevel" transform="matrix(1,0,0,1,0,0)"><text fill="#586069" fill-opacity="1" stroke="none" x="17" y="86" font-family="sans-serif" font-size="14" font-weight="550" font-style="normal">这是一个用于展示的示例仓库，包含了各种代码和资源</text></g><g fill="#586069" fill-opacity="1" stroke="#586069" stroke-opacity="1" stroke-width="1" stroke-linecap="square" stroke-linejoin="bevel" transform="matrix(1,0,0,1,0,0)"><text fill="#586069" fill-opacity="1" stroke="none" x="17" y="107" font-family="sans-serif" font-size="14" font-weight="550" font-style="normal">。😀✨</text></g><circle cx="25" cy="125" r="7" stroke="none" fill="#3572A5"></circle><g transform="matrix(1,0,0,1,0,0)"><text fill="#24292e" fill-opacity="1" stroke="none" x="35" y="129" font-family="sans-serif" font-size="12" font-weight="400" font-style="normal">Python</text></g></g>
            </g>
            
        <g transform="matrix(1,0,0,1,131,96)">
            <a target="_blank" href="https://github.com/ChinaGodMan/UserScripts//stargazers">
                <path fill="#656d76" stroke="none" d="M8 .25a.75.75 0 0 1 .673.418l1.882 3.815 4.21.612a.75.75 0 0 1 .416 1.279l-3.046 2.97.719 4.192a.751.751 0 0 1-1.088.791L8 12.347l-3.766 1.98a.75.75 0 0 1-1.088-.79l.72-4.194L.818 6.374a.75.75 0 0 1 .416-1.28l4.21-.611L7.327.668A.75.75 0 0 1 8 .25Zm0 2.445L6.615 5.5a.75.75 0 0 1-.564.41l-3.097.45 2.24 2.184a.75.75 0 0 1 .216.664l-.528 3.084 2.769-1.456a.75.75 0 0 1 .698 0l2.77 1.456-.53-3.084a.75.75 0 0 1 .216-.664l2.24-2.183-3.096-.45a.75.75 0 0 1-.564-.41L8 2.694Z"></path>
            </a>
        </g>
        <g transform="matrix(1,0,0,1,0,0)">
            <a target="_blank" href="https://github.com/ChinaGodMan/UserScripts//stargazers">
                <text fill="#656d76" fill-opacity="1" stroke="none" x="152" y="108" font-family="sans-serif" font-size="12" font-weight="400" font-style="normal">123</text>
            </a>
        </g>
    
             
        <g transform="matrix(1,0,0,1,184,96)">
            <a target="_blank" href="https://github.com/ChinaGodMan/UserScripts//forks">
                <path fill="#656d76" stroke="none" d="M5 5.372v.878c0 .414.336.75.75.75h4.5a.75.75 0 0 0 .75-.75v-.878a2.25 2.25 0 1 1 1.5 0v.878a2.25 2.25 0 0 1-2.25 2.25h-1.5v2.128a2.251 2.251 0 1 1-1.5 0V8.5h-1.5A2.25 2.25 0 0 1 3.5 6.25v-.878a2.25 2.25 0 1 1 1.5 0ZM5 3.25a.75.75 0 1 0-1.5 0 .75.75 0 0 0 1.5 0Zm6.75.75a.75.75 0 1 0 0-1.5.75.75 0 0 0 0 1.5Zm-3 8.75a.75.75 0 1 0-1.5 0 .75.75 0 0 0 1.5 0Z"></path>
            </a>
        </g>
        <g transform="matrix(1,0,0,1,0,0)">
            <a target="_blank" href="https://github.com/ChinaGodMan/UserScripts//forks">
                <text fill="#656d76" fill-opacity="1" stroke="none" x="205" y="108" font-family="sans-serif" font-size="12" font-weight="400" font-style="normal">456</text>
            </a>
        </g>
    
            
        <g transform="matrix(1,0,0,1,229,96)">
            <a target="_blank" href="https://github.com/ChinaGodMan/UserScripts//tags">
                <path fill="#656d76" stroke="none" d="M1 7.775V2.75C1 1.784 1.784 1 2.75 1h5.025c.464 0 .91.184 1.238.513l6.25 6.25a1.75 1.75 0 0 1 0 2.474l-5.026 5.026a1.75 1.75 0 0 1-2.474 0l-6.25-6.25A1.752 1.752 0 0 1 1 7.775Zm1.5 0c0 .066.026.13.073.177l6.25 6.25a.25.25 0 0 0 .354 0l5.025-5.025a.25.25 0 0 0 0-.354l-6.25-6.25a.25.25 0 0 0-.177-.073H2.75a.25.25 0 0 0-.25.25ZM6 5a1 1 0 1 1 0 2 1 1 0 0 1 0-2Z"></path>
            </a>
        </g>
        <g transform="matrix(1,0,0,1,0,0)">
            <a target="_blank" href="https://github.com/ChinaGodMan/UserScripts//tags">
                <text fill="#656d76" fill-opacity="1" stroke="none" x="250" y="108" font-family="sans-serif" font-size="12" font-weight="400" font-style="normal">10</text>
            </a>
        </g>
    
            
        <g transform="matrix(1,0,0,1,274,96)">
            <a target="_blank" href="https://opensource.org/licenses/MIT">
                <path fill="#656d76" stroke="none" d="M8.75.75V2h.985c.304 0 .603.08.867.231l1.29.736c.038.022.08.033.124.033h2.234a.75.75 0 0 1 0 1.5h-.427l2.111 4.692a.75.75 0 0 1-.154.838l-.53-.53.529.531-.001.002-.002.002-.006.006-.006.005-.01.01-.045.04c-.21.176-.441.327-.686.45C14.556 10.78 13.88 11 13 11a4.498 4.498 0 0 1-2.023-.454 3.544 3.544 0 0 1-.686-.45l-.045-.04-.016-.015-.006-.006-.004-.004v-.001a.75.75 0 0 1-.154-.838L12.178 4.5h-.162c-.305 0-.604-.079-.868-.231l-1.29-.736a.245.245 0 0 0-.124-.033H8.75V13h2.5a.75.75 0 0 1 0 1.5h-6.5a.75.75 0 0 1 0-1.5h2.5V3.5h-.984a.245.245 0 0 0-.124.033l-1.289.737c-.265.15-.564.23-.869.23h-.162l2.112 4.692a.75.75 0 0 1-.154.838l-.53-.53.529.531-.001.002-.002.002-.006.006-.016.015-.045.04c-.21.176-.441.327-.686.45C4.556 10.78 3.88 11 3 11a4.498 4.498 0 0 1-2.023-.454 3.544 3.544 0 0 1-.686-.45l-.045-.04-.016-.015-.006-.006-.004-.004v-.001a.75.75 0 0 1-.154-.838L2.178 4.5H1.75a.75.75 0 0 1 0-1.5h2.234a.249.249 0 0 0 .125-.033l1.288-.737c.265-.15.564-.23.869-.23h.984V.75a.75.75 0 0 1 1.5 0Zm2.945 8.477c.285.135.718.273 1.305.273s1.02-.138 1.305-.273L13 6.327Zm-10 0c.285.135.718.273 1.305.273s1.02-.138 1.305-.273L3 6.327Z"></path>
            </a>
        </g>
        <g transform="matrix(1,0,0,1,0,0)">
            <a target="_blank" href="https://opensource.org/licenses/MIT">
                <text fill="#656d76" fill-opacity="1" stroke="none" x="295" y="108" font-family="sans-serif" font-size="12" font-weight="400" font-style="normal">MIT</text>
            </a>
        </g>
    
        </svg>
    
