<svg xmlns="http://www.w3.org/2000/svg" viewBox="0 0 1024 1024"><path d="M924.1 770.2c-41.2 0-72.7-27.4-72.7-63.3V453.5c0-35.9 31.5-63.3 72.7-63.3s72.7 27.4 72.7 63.3v253.3c0 35.9-31.5 63.4-72.7 63.4zm-218.2 42.2v147.8c0 35.9-31.5 63.3-72.7 63.3s-72.7-27.4-72.7-63.3V812.4h-97v147.8c0 35.9-31.5 63.3-72.7 63.3s-72.7-27.4-72.7-63.3V812.4c-53.3 0-97-38-97-84.4V432.4c0-23.2 21.8-42.2 48.5-42.2h484.8c26.7 0 48.5 19 48.5 42.2V728c0 46.4-43.7 84.4-97 84.4zm97-464.4H221.1c0-84.4 46.1-158.3 118.8-204.8L272 41.9c0-4.2-2.4-6.3-2.4-10.6 0-12.7 9.7-21.1 24.2-21.1 9.7 0 17 4.2 21.8 10.6L381 122.1c38.8-16.9 84.8-27.4 130.9-27.4s92.1 10.6 130.9 27.4l65.4-101.3c4.8-6.3 12.1-10.6 21.8-10.6 14.5 0 24.2 8.4 24.2 21.1 0 4.2-2.4 6.3-2.4 10.6l-67.9 101.3c72.9 46.4 119 120.3 119 204.8zm-703 422.2c-41.2 0-72.7-27.4-72.7-63.3V453.5c0-35.9 31.5-63.3 72.7-63.3s72.7 27.4 72.7 63.3v253.3c.1 35.9-31.4 63.4-72.7 63.4z" fill="#666"/></svg>
