<svg xmlns="http://www.w3.org/2000/svg" viewBox="0 0 1024 1024"><path d="M999 873c-6.3-16.4-61.1-37-78.3-69.8s-3.2-50.5-29.7-67c-3.5-2.1-7.5-3.7-11.8-4.4 9.3-21.5 9.6-51 8.4-89.6-3.2-101.2-53.8-161.8-81.2-191.5-32.6-35.5-43.9-48.8-69-83.2-24.3-33.3-50-74-50.9-118-1.1-52-3.2-111.7-31.4-156.8-28.1-45-98.3-89.6-197.6-65.6-106 25.5-108.6 103.4-113.3 160.8s25.4 98.3.1 170.9c-25.2 72.6-69.1 99.7-90.1 136.1-52.2 90.3-63.3 98.2-86.2 144.7-25.3 51.3-6.3 81.5-6.3 81.5l1.1 2.5c-9 14.6-13.8 29.1-24.5 33-21.4 7.8-72.1-4-89.4 11-17.2 15.2 8.4 106.4-3.2 123.2-11.4 16.8-21.9 16.4-21.9 43.7s34.5 24.6 169.4 64.3c134.8 39.6 160 28.7 191.3-5.5 5.2-5.6 8.5-11.9 10.5-18.4 41.2-3.2 82.9-6 107.2-6.2 53.8-.2 129.2 14.6 164.3 22.1 5 11.9 12.4 21.4 22.3 25.9 28.2 12.3 94.1 11 133.4-21.8 39.2-32.8 138-75.1 150.6-86.1 12.6-11.2 32.4-19.5 26.2-35.8h0zM434.5 242.3c-1.5-15.6-11.2-27.3-21.8-26.7-10.6.7-18 14-16.5 29.3.8 8.6 4.2 16.1 8.9 20.9l-4.7 3.7c-7.6-8.7-14.2-22.7-15.8-39.8-2.8-29.5 10.2-52.6 24-53.6h1v-8.8 8.8c13.3 0 30.2 20.3 32.9 49.5.5 5.8.4 11.8-.1 17.6-2.6.9-5.2 2-7.6 3.1-.2-1.1-.2-2.6-.3-4h0zm-18.7 21.5l-.9.8.9-.8zm-3.4 2.6l-.9.8c0-.8 0-.8.9-.8zm-17.2 13.2c3.2-2.6 5.7-5.2 8.8-7.6-3.1 3-5.6 5.5-8.8 7.6zm2.8-2.2c2.9-2.4 5.9-5.3 8.8-7.6-3 2.8-5.9 5.2-8.8 7.6zm22.5 22.4c3.4-2.5 6.8-5.2 9.8-7.6 14.6-11.8 24.5-18.9 37.7-19.4 1.5-.1 3.1-.1 4.6-.1 22.3 0 44.9 6.9 75.6 23.4l7.8 4c-8 6.3-16.1 12.4-24.5 18.3-21.8 15.3-37.9 25-46.3 29-6.2-2.4-17.4-7.7-34.1-17.8-18.2-11-32.3-21.3-35.7-24.4 1.3-1.9 3-3.7 5.1-5.4zm131.5-41c2.7 2.2 6 4.6 8.8 6.8-2.8-2.3-5.7-4.6-8.8-6.8h0zm2.3-45.7c-13.2-.6-25.6 11.8-27.8 27.4-.3 2.5-.4 4.8-.1 7.3-4.9-1.7-9.9-3.2-15-4.6-.5-5.4-.5-10.9.2-16.2 2-14.3 8.4-27.7 17.9-37.4 8.5-8.6 18.3-13.3 27.8-13.3h1.4c7.1.3 13.6 3.4 18.9 9 9.8 10.1 14.2 26.4 11.8 43.7-2 14.3-8.4 27.7-17.8 37.4-.4.3-.9.8-1.2 1.2l-1.2-.7-5.8-3c5.8-5 9.8-12.5 11.1-21.2 1.8-15.8-7-29-20.2-29.6h0zm11.8 55.7c-2.9-2.2-5.9-5.4-8.8-7.6 3.4 2.2 6.4 4.5 8.8 7.6zm-18.2-10.2c-2.7-1.6-6.1-3-8.8-4.6 2.8 1.6 5.4 3.2 8.8 4.6zm-5.1-2.5c-3.2-1.6-5.6-2.2-8.7-3.8 3.2 1.6 6.4 3.2 8.7 3.8h0zm-37.3-11.5c.9 0 1.7.8 3.5.8-1.8-.8-2.7-.8-3.5-.8h0zm73.4 30.7c-2.9-2.4-5.9-5.3-8.8-7.6 2.9 2.8 5.9 5.1 8.8 7.6zm10.6 4.9c-2.8-2.4-5.8-4.7-8.8-6.8 3.2 2.3 5.7 4.6 8.8 6.8h0zm-3.4-1.1c-2.6-2.4-5.8-5.3-8.8-7.6 3.1 2.2 6.2 5.3 8.8 7.6zm36 600.3c-24.6 19.6-43.6 27.7-57.4 35.4-25.9 14.3-67.7 23.1-111.1 17.4-27.6-3.6-52.2-13.6-73.9-25-4-7.1-8.8-13.9-14.3-20.3-9.6-11.1-74.9-91.5-115.6-141.7-2.2-9.9-3.2-19.8-3.2-29.9.8-58.8 19.6-127.4 34.9-143.6 4.7-4.9 38.9-89.9 47.1-108 14.9-32.8 37.9-71.4 50-94 8.2-18.7 9.5-31.7 8.4-40.5 13.5 12.3 77.1 54.1 99.9 54.1h.4c19-.3 91.4-51.8 116.2-75.5 2.4 8.6 14.6 25.6 22.3 42.2 22.8 48 49.3 137.9 91.5 187.7 2.8 3.5 10 15.1 11.4 19.7 16.5 51.5 13.2 90.5 2.9 166.9-5.3-1.6-10.9-2.6-16.6-2.9-28.9-2-39.2 8.3-39.2 8.3s-1.6 56.7-4.8 109.1l-7.6 7.2c-14.7 12.6-28.5 23.7-41.3 33.4h0z" fill="#666"/></svg>
