<svg xmlns="http://www.w3.org/2000/svg" viewBox="0 0 1024 1024"><path d="M737.9 754.8c0 1.3 1.3 3.9 1.3 5.2l-1.3-3.9v1.3c-45.1-85-99.2-171.3-112.1-191.9-19.3 38.6-59.3 61.8-101.8 61.8h-19.3c-12.9 15.5-77.3 91.5-143 159.7l-9 7.7c-37.4 43.8-81.2 81.2-131.4 110.8-50.2 28.3 240.9 203.5 441.8 67 70.8-43.8 103.1-130.1 77.3-208.7l-2.6-3.9v-5.1h.1z" fill="#ffea00"/><path d="M1003.2 517.8c-21.9-81.2-95.3-136.5-179.1-132.7-96.6 16.7-198.4 42.5-217.7 47.7 20.6 21.9 32.2 50.2 32.2 79.9 0 15.5-2.6 30.9-10.3 46.4 48.9 58 85 123.7 108.2 194.5l1.3 5.2 2.6 3.9c29.6 47.7 50.2 100.5 63.1 155.9 13 56.5 266.7-167.6 199.7-400.8h0z" fill="#f02"/><path d="M736.6 753.6v-1.3c-23.2-70.8-60.5-136.5-108.2-193.2 0 2.6-1.3 5.2-2.6 7.7l1.3 1.3c12.9 19.3 65.7 105.6 110.8 188.1l1.3 2.6c-1.3-1.4-1.3-2.7-2.6-5.2h0z" fill="#e95130"/><path d="M472.5 408.3c14.2-6.4 30.9-10.3 47.7-9 28.3 0 55.4 10.3 76 29.6l6.4 5.2c19.3-5.2 122.4-30.9 217.7-47.7 55.4-14.2 113.4-18 171.3-12.9 58 5.2-76-305.3-318.2-314.3-78.6-3.9-152 43.8-177.8 118.5 0 3.9 0 6.4-1.3 10.3-12.8 94.1-21.8 199.7-21.8 220.3h0z" fill="#d13bfc"/><path d="M314.1 488.2c47.7 20.6 86.3 36.1 96.6 39.9-1.3-5.2-1.3-10.3-1.3-16.7 0-39.9 20.6-78.6 55.4-99.2l9-5.2c0-19.3 7.7-124.9 21.9-220.3 3.9-56.7 16.7-112.1 39.9-164.9C540.8 9 524.1 1.3 494.4 0H479c-95.3 2.6-283.4 64.4-342.6 226.7-28.3 73.4-3.9 157.2 58 206.1 3.9 1.3 7.7 3.9 11.6 5.2l108.1 50.2h0z" fill="#23a0f7"/><path d="M352.7 793.5c69.6-70.8 139.1-150.7 150.7-164.9-5.2 0-10.3-1.3-16.7-3.9-38.6-12.9-67-45.1-76-83.7l-1.3-11.6c-11.6-3.9-48.9-19.3-96.6-41.2-36.1-16.7-70.8-33.5-105.6-51.5-52.8-21.9-101.8-54.1-143-91.5-10.3-9-23.2 3.9-34.8 30.9l-5.2 14.2c-27 92.7-29.6 289.8 105.7 398 64.4 52.8 155.8 55.4 222.8 5.2z" fill="#00e46c"/></svg>
