<svg xmlns="http://www.w3.org/2000/svg" viewBox="0 0 1024 1024"><path d="M943.2 236.1L694.1 388.2c-39.6-58.4-106.4-96.5-182.1-96.5-121.6 0-220.2 98.4-220.2 220.2 0 121.6 98.7 220.2 220.2 220.2 72 0 136.1-34.8 176.2-88.3L937.9 796c-91.6 137.5-248.2 228-425.9 228C229.2 1024 0 794.8 0 512 0 229 229.2 0 512 0c181.2 0 340.2 94 431.2 236.1h0z" fill="#4285f4"/><path d="M512 335.8c97.3 0 176.2 78.8 176.2 176.2 0 97.1-78.8 176.2-176.2 176.2S335.8 609.1 335.8 512c0-97.3 78.9-176.2 176.2-176.2z" fill="#34a853"/><path d="M968.9 280.8c35 69.6 55.1 148 55.1 231.2 0 88.3-22.5 171.5-61.9 244.2L714.6 598.5h-.2c11.5-26.6 17.8-55.7 17.8-86.5 0-28-5.3-54.8-14.8-79.3l251.5-151.9z" fill="#fbbc05"/></svg>
