<svg xmlns="http://www.w3.org/2000/svg" viewBox="0 0 1024 1024"><linearGradient id="A" gradientUnits="userSpaceOnUse" x1="68.573" y1="404.487" x2="955.394" y2="404.487"><stop offset="0" stop-color="#d93025"/><stop offset="1" stop-color="#ea4335"/></linearGradient><path d="M955.4 256C814 11.2 500.8-72.7 255.9 68.7 178.1 113.6 113.5 178.2 68.6 256l30.7 553 856.1-553z" fill="url(#A)"/><linearGradient id="B" gradientUnits="userSpaceOnUse" x1="700.202" y1="915.394" x2="256.826" y2="147.421"><stop offset="0" stop-color="#1e8e3e"/><stop offset="1" stop-color="#34a853"/></linearGradient><path d="M290.4 640L68.7 256C-72.7 500.9 11.2 814 256.1 955.4c77.8 44.9 166.1 68.6 256 68.6l501.8-512-723.5 128z" fill="url(#B)"/><linearGradient id="C" gradientUnits="userSpaceOnUse" x1="437.608" y1="1024.157" x2="880.984" y2="257.516"><stop offset="0" stop-color="#fcc934"/><stop offset="1" stop-color="#fbbc04"/></linearGradient><path d="M733.8 640l-221.7 384c282.8-.1 512-229.3 511.9-512.1 0-89.8-23.7-178.1-68.6-255.9H512.1l221.7 384z" fill="url(#C)"/><path d="M512.1 768c141.4 0 256-114.6 256-256s-114.6-256-256-256-256 114.6-256 256 114.6 256 256 256z" fill="#fff"/><path d="M512.1 714.8c112 0 202.8-90.7 202.8-202.7s-90.7-202.8-202.7-202.8h-.1c-112 0-202.7 90.8-202.7 202.8 0 111.9 90.7 202.7 202.7 202.7z" fill="#1a73e8"/></svg>
