<svg xmlns="http://www.w3.org/2000/svg" xmlns:xlink="http://www.w3.org/1999/xlink" viewBox="0 0 1024 1024"><linearGradient id="A" gradientUnits="userSpaceOnUse" x1="905.97" y1="158.693" x2="81.942" y2="953.74"><stop offset=".048" stop-color="#fff44f"/><stop offset=".111" stop-color="#ffe847"/><stop offset=".225" stop-color="#ffc830"/><stop offset=".368" stop-color="#ff980e"/><stop offset=".401" stop-color="#ff8b16"/><stop offset=".462" stop-color="#ff672a"/><stop offset=".534" stop-color="#ff3647"/><stop offset=".705" stop-color="#e31587"/></linearGradient><path d="M971.8 343.8c-21.6-51.9-65.3-107.9-99.6-125.6 24.4 47.3 41.4 98.1 50.3 150.6l.1.8c-56.1-139.9-151.2-196.3-229-319.1l-11.7-19c-2.2-3.8-3.9-7.1-5.5-10.2-3.2-6.2-5.7-12.8-7.4-19.7a1.3 1.3 0 0 0-1.1-1.3c-.3-.1-.6-.1-.9 0-.1 0-.2.1-.2.1l-.4.2.2-.3c-124.7 73-167 208.1-170.8 275.7-49.8 3.4-97.4 21.8-136.6 52.6-4.1-3.5-8.4-6.7-12.8-9.7-11.3-39.6-11.8-81.5-1.4-121.3-45.8 22.2-86.5 53.6-119.5 92.3h-.2C205.6 265 207 182.7 208.1 165.6c-5.8 2.3-11.4 5.3-16.6 8.8-17.4 12.4-33.6 26.3-48.5 41.6-17 17.2-32.5 35.9-46.4 55.7v.1-.1C64.6 316.9 42 368 29.9 422l-.7 3.3c-.9 4.4-4.3 26.2-4.9 31 0 .4-.1.7-.1 1.1-4.3 22.6-7 45.5-8.1 68.4v2.6c.5 274.1 223.1 496 497.3 495.5 241.1-.4 447-174 488.2-411.6l2.3-19.2c10.3-84.5-.8-170.2-32.1-249.3h0zM399.7 732.4l6.9 3.4.3.2c-2.3-1.2-4.7-2.4-7.2-3.6zm522.9-362.6v-.5.5h0z" fill="url(#A)"/><radialGradient id="B" cx="-7099.763" cy="9432.619" r="1034.791" gradientTransform="matrix(1 0 0 -1 7974 9548.1104)" gradientUnits="userSpaceOnUse"><stop offset=".129" stop-color="#ffbd4f"/><stop offset=".186" stop-color="#ffac31"/><stop offset=".247" stop-color="#ff9d17"/><stop offset=".283" stop-color="#ff980e"/><stop offset=".403" stop-color="#ff563b"/><stop offset=".467" stop-color="#ff3750"/><stop offset=".71" stop-color="#f5156c"/><stop offset=".782" stop-color="#eb0878"/><stop offset=".86" stop-color="#e50080"/></radialGradient><use xlink:href="#N" fill="url(#B)"/><radialGradient id="C" cx="-7483.968" cy="9009.994" r="1034.791" gradientTransform="matrix(1,0,0,-1,7974,9548.1104)" gradientUnits="userSpaceOnUse"><stop offset=".3" stop-color="#960e18"/><stop offset=".351" stop-color="#b11927" stop-opacity=".74"/><stop offset=".435" stop-color="#db293d" stop-opacity=".343"/><stop offset=".497" stop-color="#f5334b" stop-opacity=".094"/><stop offset=".53" stop-color="#ff3750" stop-opacity="0"/></radialGradient><use xlink:href="#N" fill="url(#C)"/><radialGradient id="D" cx="-7355.899" cy="9663.142" r="749.583" gradientTransform="matrix(1 0 0 -1 7974 9548.1104)" gradientUnits="userSpaceOnUse"><stop offset=".132" stop-color="#fff44f"/><stop offset=".252" stop-color="#ffdc3e"/><stop offset=".506" stop-color="#ff9d12"/><stop offset=".526" stop-color="#ff980e"/></radialGradient><path d="M730.5 402.1l3.1 2.3c-12.5-22.1-28-42.4-46.1-60.1C533.2 189.9 647.1 9.7 666.3.5l.2-.3c-124.7 73-167 208.1-170.8 275.7 5.8-.4 11.5-.9 17.4-.9 90 .3 173.1 48.7 217.4 127.1h0z" fill="url(#D)"/><radialGradient id="E" cx="-7599.229" cy="8741.052" r="492.678" gradientTransform="matrix(1 0 0 -1 7974 9548.1104)" gradientUnits="userSpaceOnUse"><stop offset=".353" stop-color="#3a8ee6"/><stop offset=".472" stop-color="#5c79f0"/><stop offset=".669" stop-color="#9059ff"/><stop offset="1" stop-color="#c139e6"/></radialGradient><use xlink:href="#O" fill="url(#E)"/><radialGradient id="F" cx="-7520.675" cy="9099.702" r="261.259" gradientTransform="matrix(0.972,-0.235,-0.275,-1.138,10352.5947,9037.3887)" gradientUnits="userSpaceOnUse"><stop offset=".206" stop-color="#9059ff" stop-opacity="0"/><stop offset=".278" stop-color="#8c4ff3" stop-opacity=".064"/><stop offset=".747" stop-color="#7716a8" stop-opacity=".45"/><stop offset=".975" stop-color="#6e008b" stop-opacity=".6"/></radialGradient><use xlink:href="#O" fill="url(#F)"/><radialGradient id="G" cx="-7496.774" cy="9471.04" r="354.493" gradientTransform="matrix(1 0 0 -1 7974 9548.1104)" gradientUnits="userSpaceOnUse"><stop offset="0" stop-color="#ffe226"/><stop offset=".121" stop-color="#ffdb27"/><stop offset=".295" stop-color="#ffc82a"/><stop offset=".502" stop-color="#ffa930"/><stop offset=".732" stop-color="#ff7e37"/><stop offset=".792" stop-color="#ff7139"/></radialGradient><path d="M335.8 312.2L346 319c-11.3-39.6-11.8-81.5-1.4-121.3-45.8 22.2-86.5 53.6-119.5 92.3 2.5 0 74.5-1.3 110.7 22.2z" fill="url(#G)"/><radialGradient id="H" cx="-7215.024" cy="9701.563" r="1512.485" gradientTransform="matrix(1 0 0 -1 7974 9548.1104)" gradientUnits="userSpaceOnUse"><stop offset=".113" stop-color="#fff44f"/><stop offset=".456" stop-color="#ff980e"/><stop offset=".622" stop-color="#ff5634"/><stop offset=".716" stop-color="#ff3647"/><stop offset=".904" stop-color="#e31587"/></radialGradient><path d="M20.7 540.2C59 766.5 264.2 939.4 497 945.9c215.5 6.1 353.2-119 410.1-241 48.2-105.5 53.7-225.5 15.4-335v-.5c0-.4-.1-.6 0-.5l.1.8c17.6 115-40.9 226.3-132.3 301.7l-.3.6c-178.1 145.1-348.6 87.5-383.1 64l-7.2-3.6C295.9 682.9 253 588.3 262.2 507.1c-50.4.7-96.4-28.2-117.6-74 55.4-34 124.5-36.7 182.5-7.3 58.8 26.7 125.7 29.3 186.3 7.3-.2-4-86.6-38.4-120.3-71.6-18-17.7-26.5-26.3-34.1-32.7-4.1-3.5-8.4-6.7-12.8-9.7-2.9-2-6.3-4.2-10.2-6.8-36.2-23.5-108.2-22.2-110.6-22.2h-.2C205.6 265.3 207 183 208.1 165.9c-5.8 2.3-11.4 5.3-16.6 8.8-17.4 12.4-33.6 26.3-48.5 41.6-17.1 17.2-32.6 35.8-46.6 55.5v.1-.1C64.5 317 41.9 368.1 29.8 422.1c-.2 1-17.9 78.1-9.1 118.1h0z" fill="url(#H)"/><radialGradient id="I" cx="-7827.443" cy="10041.301" r="1107.789" gradientTransform="matrix(0.105 0.995 0.653 -6.900000e-02 -5101.8242 8411.5615)" gradientUnits="userSpaceOnUse"><stop offset="0" stop-color="#fff44f"/><stop offset=".06" stop-color="#ffe847"/><stop offset=".168" stop-color="#ffc830"/><stop offset=".304" stop-color="#ff980e"/><stop offset=".356" stop-color="#ff8b16"/><stop offset=".455" stop-color="#ff672a"/><stop offset=".57" stop-color="#ff3647"/><stop offset=".737" stop-color="#e31587"/></radialGradient><path d="M687.5 344.2c18.1 17.8 33.6 38.1 46.1 60.2 2.7 2.1 5.3 4.1 7.4 6.1 112.5 103.7 53.6 250.4 49.2 260.7 91.4-75.3 149.8-186.7 132.3-301.7-56.1-140-151.4-196.5-229-319.3l-11.7-19c-2.2-3.8-3.9-7.1-5.5-10.2-3.2-6.2-5.7-12.8-7.4-19.7a1.3 1.3 0 0 0-1.1-1.3c-.3-.1-.6-.1-.9 0-.1 0-.2.1-.2.1l-.4.2c-19.2 9.2-133 189.5 21.3 343.7l-.1.2z" fill="url(#I)"/><radialGradient id="J" cx="-7496.774" cy="9342.972" r="944.118" gradientTransform="matrix(1 0 0 -1 7974 9548.1104)" gradientUnits="userSpaceOnUse"><stop offset=".137" stop-color="#fff44f"/><stop offset=".48" stop-color="#ff980e"/><stop offset=".592" stop-color="#ff5634"/><stop offset=".655" stop-color="#ff3647"/><stop offset=".904" stop-color="#e31587"/></radialGradient><path d="M741 410.6l-7.4-6.1-3.1-2.3c-34.9-24.2-77.6-34.5-119.7-29.1C789.3 462.4 741.4 769.7 494 758.2a219.58 219.58 0 0 1-64.6-12.5c-4.9-1.8-9.7-3.8-14.6-6l-8.4-4 .3.2c34.5 23.6 204.9 81.1 383.1-64l.3-.6c4.5-10.3 63.5-157-49.1-260.7h0z" fill="url(#J)"/><radialGradient id="K" cx="-7253.445" cy="9291.744" r="1033.382" gradientTransform="matrix(1 0 0 -1 7974 9548.1104)" gradientUnits="userSpaceOnUse"><stop offset=".094" stop-color="#fff44f"/><stop offset=".231" stop-color="#ffe141"/><stop offset=".509" stop-color="#ffaf1e"/><stop offset=".626" stop-color="#ff980e"/></radialGradient><path d="M289.6 573.2s22.9-85.4 164.1-85.4c15.3 0 58.9-42.6 59.7-54.9-60.7 22-127.6 19.4-186.3-7.3-58-29.4-127.1-26.6-182.5 7.3 21.1 45.7 67.2 74.7 117.6 74-9.2 81.2 33.7 175.7 137.5 225.4l6.9 3.4c-60.7-31.4-110.7-90.6-117-162.5h0z" fill="url(#K)"/><linearGradient id="L" gradientUnits="userSpaceOnUse" x1="896.052" y1="154.543" x2="195.007" y2="855.716"><stop offset=".167" stop-color="#fff44f" stop-opacity=".8"/><stop offset=".266" stop-color="#fff44f" stop-opacity=".634"/><stop offset=".489" stop-color="#fff44f" stop-opacity=".217"/><stop offset=".6" stop-color="#fff44f" stop-opacity="0"/></linearGradient><path d="M971.8 343.8c-21.6-51.9-65.3-107.9-99.6-125.6 24.4 47.3 41.4 98.1 50.3 150.6l.1.8c-56.1-139.9-151.2-196.3-229-319.1l-11.7-19c-2.2-3.8-3.9-7.1-5.5-10.2-3.2-6.2-5.7-12.8-7.4-19.7a1.3 1.3 0 0 0-1.1-1.3c-.3-.1-.6-.1-.9 0-.1 0-.2.1-.2.1l-.4.2.2-.3c-124.7 73-167 208.1-170.8 275.7 5.8-.4 11.5-.9 17.4-.9 90 .2 173.1 48.7 217.5 127-34.9-24.2-77.6-34.5-119.7-29.1 178.5 89.3 130.6 396.6-116.8 385.1a219.58 219.58 0 0 1-64.6-12.5c-4.9-1.8-9.7-3.8-14.6-6l-8.4-4 .3.2-7.2-3.6 6.9 3.4C346 704.5 296 645.2 289.7 573.4c0 0 22.9-85.4 164.1-85.4 15.3 0 58.9-42.6 59.7-54.9-.2-4-86.6-38.4-120.3-71.6-18-17.7-26.5-26.3-34.1-32.7-4.1-3.5-8.4-6.7-12.8-9.7-11.3-39.6-11.8-81.5-1.4-121.3-45.8 22.2-86.5 53.6-119.5 92.3h-.2c-19.7-24.9-18.3-107.2-17.2-124.3-5.8 2.3-11.4 5.3-16.6 8.8-17.4 12.4-33.6 26.3-48.5 41.6-17 17.2-32.5 35.9-46.4 55.7v.1-.1C64.7 317 42 368.1 30 422.1l-.7 3.3c-.9 4.4-5.1 26.5-5.7 31.3h0c-3.8 22.9-6.3 46-7.3 69.2v2.6c.5 274.1 223.1 496 497.3 495.5 241.1-.4 447-174 488.2-411.6l2.3-19.2c10.1-84.5-.9-170.2-32.3-249.4h0zm-49.2 25.5l.1.5-.1-.5z" fill="url(#L)"/><defs ><path id="N" d="M971.8 343.8c-21.6-51.9-65.3-107.9-99.6-125.6 24.4 47.3 41.4 98.1 50.3 150.6v.5l.1.5c38.3 109.5 32.7 229.5-15.4 335-56.9 122.1-194.5 247.2-410.1 241-232.8-6.6-438-179.4-476.3-405.7-7-35.7 0-53.8 3.5-82.8-4.8 22.5-7.5 45.5-8 68.5v2.6c.5 274.1 223.1 496 497.3 495.5 241.1-.4 447-174 488.2-411.6l2.3-19.2c10.2-84.5-.9-170.2-32.3-249.3h0z"/><path id="O" d="M513.3 433c-.8 12.3-44.4 54.9-59.7 54.9-141.1 0-164.1 85.4-164.1 85.4 6.2 71.9 56.3 131.1 116.9 162.4 2.8 1.4 5.6 2.7 8.4 4 4.9 2.2 9.7 4.1 14.6 6a219.58 219.58 0 0 0 64.6 12.5C741.5 769.7 789.4 462.3 610.8 373c42.1-5.5 84.8 4.9 119.7 29.1-44.4-78.3-127.4-126.8-217.5-127-5.9 0-11.7.5-17.4.9-49.8 3.4-97.4 21.8-136.6 52.6 7.6 6.4 16.1 15 34.1 32.7 33.7 33.2 120.1 67.6 120.3 71.6l-.1.1z"/></defs></svg>
