<svg xmlns="http://www.w3.org/2000/svg" viewBox="0 0 1024 1024"><path d="M3.3 569.2l-.7-7 .7 7zM652.1 19.6l4.1 1.2-4.1-1.2zM73.5 776.3l-1.2-1.9 1.2 1.9zM442.7 4.8l3.8-.5-3.8.5h0zM81.5 789.2l-3.1-4.9 3.1 4.9h0zm35.6-603l3.1-3.7-3.1 3.7zM266.8 62.5l6.1-3.3-6.1 3.3zM19.7 371.6l1.1-3.7-1.1 3.7zM280.9 55.2l2.1-1.1-2.1 1.1zm576 835.2c42.5-38.8 78.1-84.4 105.4-135-6.7 11.4-13.8 22.6-21.1 33.6-23.4 36.9-51.6 71.1-84.3 101.4zM169.5 131.6c28.6-25.8 59.9-48.2 93.5-67-52.5 29.2-99.4 67.4-138.6 113 14-16.2 29.1-31.6 45.1-46h0zM635 15C579.5 1.2 522.1-3.1 465.2 2.2 522.1-3 579.5 1.3 635 15h0zM15 389.1C1.3 444.3-3.1 501.4 2.1 558.1c-5-56.7-.7-113.8 12.9-169h0zm497 634.8c51.9-11.8 98.7-29.9 140-52.3 67.6-38.2 128.1-92.1 168-151.6 29.2-45.1 45.9-91.5 49.1-133.6 1.1-22-1.5-43.8-8.5-64.9-16.2-48.7-59.9-83.8-150.4-86.3-9.3-49.8-33-95.5-72.3-136.7l-4.1 3.7c14.8 21.5 26.1 46.8 29.8 75.7 2.7 18.8 1.8 37.9-2.8 57.1l-.3 1.3v.1l-.3 1.5c-3.7 5.8-7.7 11.5-12.1 16.8l-1.1 1.4c-1.7 2.1-3.5 4.2-5.4 6.3l-1.8 2c-2.3 2.5-4.8 5-7.2 7.4l-.1.1h0c-22.7 22-53.1 40.2-93.3 53.3l-5.4 2.3c-29.5 14-53.9 32.1-73.8 53.7-25.1 27.9-44.4 63.1-58.3 105.1L328.5 728l2.5-11.2.1-1.1c1.7.3 4.1.3 6.8.1 17.6-2.8 36.1-9.1 50.5-19.9.7-.6 1.4-1.1 2.1-1.7l.3-.2c12.2-10.5 21.6-25.2 22.9-45.4l.1-1.7c.1-1.7.1-3.4.1-5v-.9h0c-.1-11.8-2-23.9-6.1-35.2L131.5 854.5c-14.4-16-27.8-32.9-40.2-50.6 119.7 172.5 338.9 260 553.3 202.4a124.52 124.52 0 0 0 3.1-.9l-8.3 2.1c-39.7 10.1-82.3 15.8-127.4 16.4h0zm506.2-443.3c-8.4 60.8-27.1 116.4-52.6 168.6 41.3-79 62.2-168.8 57.8-261.1 1 30.9-.8 61.9-5.2 92.5h0zM666.6 23.9h.1c0 .1-.1 0-.1 0h0zm298 724.1l-.1.3-.6 4.1h0l.7-4.4h0z" fill="#df4e02"/><path d="M407.8 605.8c-2.9-8.2-7-16-12.3-22.9-8.1-10.2-17.5-16.9-25.6-21.4-18.6-9.3-43.7-12-76.3-3.6-23.9 6.1-43 30.9-47.2 84.5l-8.2 1.9-65.1-57.5 2.5-23.7L282.1 469l-11.3-12.5c-5.1-13.8-3.9-32 2.5-53.9 75.1-97.2 152.6-171.6 232.8-219 9.6 6.3 21.3 24.3 35.1 53.9 3.8-32.7-.1-59.1-18.8-75.1-15-10-31.7 20-48.8 28.8 32.7-56.7 45.7-73.2 92.6-42.6C627 116.3 700.3 93.4 785 78.8 748.1 55.6 708.3 37.1 666.7 24h-.1l-10.4-3.2-4.1-1.2-6.4-1.8-8.2-2.1-2.5-.7C579.5 1.4 522.1-3 465.2 2.2l-.7.1c-3.5.3-7 .7-10.5 1.1l-7.5.9-3.8.5C387.1 12.3 333.2 28.9 283 54.1l-2.1 1.1-14 7.4-3.9 2.1c-33.6 18.8-64.9 41.2-93.5 67-16 14.4-31.1 29.8-45.1 46l-4.1 4.8-3.1 3.7c-45 54.4-78.2 117.5-97.5 185.4-1.4 4.8-2.7 9.7-3.9 14.6l-.7 2.9a511.32 511.32 0 0 0-13 169l.4 4.1c7.3 75 31.1 147.5 69.8 212.2l1.2 1.9c1.6 2.7 3.2 5.3 4.9 7.9l3.1 4.9 3.2 4.9c1.7 2.6 3.5 5.2 5.2 7.7l1.4 2.1c12.3 17.7 25.7 34.6 40.2 50.6l276.3-248.6zm9.5-257.6c-11 18.7-21.7 37.3-31.5 55.9 9.6-17.7 20.8-36.8 31.5-55.9zM610 373.5l.9.9a280.16 280.16 0 0 1 7.4 8l.9 1c5.3 6 10.2 12.3 14.7 18.9l4.1-3.7c-11.4-12-23.7-23.2-36.6-33.5 2.9 2.7 5.8 5.5 8.6 8.4h0z" fill="#f5671b"/><g fill="#fbf3ec"><path d="M660.2 537.9l.3-1.5c0 .1-.1.1-.1.2l-.2 1.3h0zm281 251c-36.4 54.3-76.7 97.7-120.2 131.7 12.4-9.5 24.4-19.6 35.9-30.2 32.6-30.3 60.9-64.5 84.3-101.5zm-527.4-142l-.1 1.7c0-.4.1-.8.1-1.2v-.5h0zm120-19.4c1.8-.8 3.6-1.6 5.5-2.3l-2.4.8c-1.1.5-2.1 1-3.1 1.5h0zm127-92.4c4.6-19.2 5.5-38.3 2.8-57.1 2.2 17.7 1.6 36.7-2.8 57.1zM601.3 365c221.1 35.6 401.9 108.3 363.2 383.2l.1-.3c39.7-244.6-107.8-346.1-363.3-382.9h0zM652 971.7c-41.3 22.4-88 40.5-140 52.3 47.2-8.6 95.2-27 140-52.3zM337.8 715.9c12.5-.8 33.6-6.5 50.5-19.9-14.3 10.8-32.9 17-50.5 19.9zM460 681.1c-26.9 29.1-45.8 64.6-58.3 105.1 13.8-41.9 33.1-77.1 58.3-105.1h0zm52 342.8c45.1-.6 87.6-6.3 127.5-16.3-40.9 10-83.5 15.2-127.5 16.3zm357.1-337.4c-3.2 42-19.9 88.5-49.1 133.6 28.7-43 46.7-88.7 49.1-133.6zM413.9 641v.9-.9zm-23.5 53.3l.3-.2-.3.2z"/><path d="M566.2 148.5c-46.9-30.6-59.9-14.1-92.6 42.6 17.1-8.9 33.8-38.9 48.8-28.8 18.7 16.1 22.6 42.4 18.8 75.1-13.8-29.5-25.5-47.6-35.1-53.9-80.2 47.4-157.7 121.8-232.8 219-6.4 21.9-7.6 40-2.5 53.9l11.3 12.5-106.4 93.9-2.5 23.7 65.1 57.5 8.2-1.9c4.3-53.5 23.4-78.3 47.2-84.5 32.6-8.4 57.7-5.7 76.3 3.6-6.3-3.5-11.7-5.6-14.8-6.9l34.6-59.3c58.6-64.1 129-107.6 211.6-130.2 151.9-36.6 293.7-24.3 417.5 73.6 6.2 50.5 5.5 97.6-.6 142 4.5-30.6 6.2-61.6 5.2-92.5-4.9-151.1-76.1-301.5-227.1-401.9-3.7-2.5-7.5-4.9-11.3-7.3-84.8 14.7-158.1 37.6-218.9 69.8h0zM385.8 404.1c-5.9 11.2-11.5 22.6-16.7 34.2l-26.2-8.2-18.8 5.7c30.9-38.4 62-67.1 93.2-87.6l-31.5 55.9zm9.8 178.7c5.3 7 9.3 14.8 12.3 22.9 4.1 11.3 6 23.5 6.1 35.2 0-26.5-8.1-45.1-18.4-58.1z"/></g><path d="M963.9 752.4l.6-4.1c38.8-275-142.1-347.6-363.2-383.2 12.9 10.4 25.2 21.5 36.6 33.5 39.3 41.2 63 86.9 72.3 136.7 90.5 2.6 134.2 37.7 150.4 86.3 7 21.1 9.6 42.9 8.5 64.9-2.3 44.9-20.4 90.7-49.1 133.6-39.9 59.5-100.3 113.4-168 151.6-44.8 25.3-92.7 43.7-140 52.3 44-1.2 86.6-6.4 127.5-16.3l8.3-2.1c62-16.2 120-43.5 173.1-84.9 43.6-34 83.8-77.3 120.2-131.7 7.4-11 14.4-22.2 21.1-33.6l1.5-2.5c.2-.2.2-.4.2-.5h0z" fill="#dba789"/><path d="M1018.8 438.6C895 340.7 753.2 328.4 601.3 365c255.5 36.7 403 138.3 363.3 382.9l-.7 4.3-.1.5 1.8-3.7c25.5-52.2 44.2-107.8 52.6-168.6 6.1-44.1 6.8-91.2.6-141.8h0zM610 373.5l.9.9-.9-.9zm9.1 9.8l-.9-1 .9 1h0zm29 171.4c4.3-5.4 8.4-11 12.1-16.8l.2-1.3c-3.7 6.3-7.8 12.4-12.3 18.1zm-258.3-59.5l-34.6 59.3c3.2 1.3 8.6 3.4 14.8 6.9 8 4.5 17.5 11.2 25.6 21.4 10.3 13 18.4 31.6 18.3 58.2h0v.9c0 1.7-.1 3.4-.1 5v.6c0 .4-.1.8-.1 1.2-1.3 20.2-10.7 35-22.9 45.4l-.3.2c-.7.6-1.4 1.2-2.1 1.7-16.9 13.3-38 19-50.5 19.9-2.7.2-5 .1-6.8-.1l-.1 1.1-2.5 11.2 73.2 58.2c12.5-40.5 31.4-76 58.3-105.1 20-21.6 44.4-39.7 73.8-53.7l3-1.5c.8-.3 1.6-.6 2.4-.8 40.2-13.1 70.6-31.3 93.3-53.3 41.1-58.8 29.5-128-31.2-206.8-82.5 22.5-152.9 66-211.5 130.1h0z" fill="#f0dbcb"/><path d="M632.5 571.9h0 0c2.6-2.5 5-5 7.3-7.5l1.8-2 5.4-6.3 1.1-1.4c4.5-5.7 8.6-11.8 12.3-18.2 0-.1.1-.1.1-.2v-.1l.3-1.3c4.4-20.4 5.1-39.4 2.8-57.1-3.6-28.9-14.9-54.3-29.8-75.7-4.5-6.6-9.5-12.9-14.7-18.9l-.9-1c-2.7-3-5.4-6-8.3-8.9-2.8-2.9-5.7-5.7-8.6-8.4 60.7 78.9 72.3 148.1 31.2 207h0z" fill="#e8b293"/><path d="M324.1 435.8l18.8-5.7 26.2 8.2c5.2-11.6 10.8-23 16.7-34.2 9.8-18.6 20.5-37.3 31.5-55.9-31.2 20.5-62.3 49.2-93.2 87.6h0z" fill="#cf4e08"/></svg>
