<svg xmlns="http://www.w3.org/2000/svg" viewBox="0 0 1024 1024"><linearGradient  gradientUnits="userSpaceOnUse" x1="1114.02" y1="-205.46" x2="29.324" y2="1087.231"><stop offset=".397" stop-color="#0080fd"/><stop offset=".444" stop-color="#0985fd"/><stop offset=".52" stop-color="#2293fd"/><stop offset=".617" stop-color="#4aaafd"/><stop offset=".729" stop-color="#81c9fe"/><stop offset=".816" stop-color="#b1e4fe"/><stop offset=".852" stop-color="#b8e6fe"/><stop offset=".905" stop-color="#ccedfe"/><stop offset=".969" stop-color="#edf9ff"/><stop offset="1" stop-color="#fff"/></linearGradient><path d="M982.9 313c-25.8-60.9-62.6-115.5-109.4-162.4C826.6 103.7 771.9 66.9 711 41.1 647.9 14.4 580.9.9 512 .9S376.1 14.4 313 41.1c-60.9 25.8-115.5 62.6-162.4 109.4C103.7 197.4 66.9 252.1 41.1 313 14.4 376.1.9 443.1.9 512s13.6 135.9 40.3 199c25.8 60.9 62.6 115.5 109.4 162.4 46.9 46.9 101.5 83.7 162.4 109.4 63.2 26.7 130.2 40.3 199 40.3s135.9-13.6 199-40.3c60.9-25.8 115.5-62.6 162.4-109.4 46.9-46.9 83.7-101.5 109.4-162.4 26.7-63.2 40.3-130.2 40.3-199s-13.5-135.9-40.2-199zM512 759.1c-136.5 0-247.1-110.7-247.1-247.1S375.5 264.9 512 264.9 759.1 375.5 759.1 512 648.5 759.1 512 759.1z" fill="#2796fd"/><path d="M890.5 750.9C886.3 660.8 811.9 589 720.7 589c-83.1 0-152.3 59.6-167.1 138.4-81.7.1-147.9 66.4-147.9 148.2s66.3 148.2 148.2 148.2h333c75.4 0 136.5-61.1 136.5-136.5-.1-74.1-59.2-134.5-132.9-136.4z" fill="#fff"/></svg>
