<svg xmlns="http://www.w3.org/2000/svg" viewBox="0 0 1024 1024"><path d="M512.1 1024C229.3 1024 0 794.8 0 512.1S229.2 0 511.9 0s512 229.2 512.1 511.9v.1c-.3 282.6-229.3 511.6-511.9 512h0zm0-994.5c-266.5 0-482.5 215.9-482.6 482.4s215.9 482.5 482.4 482.6c266.5 0 482.5-215.9 482.6-482.4v-.1c-.3-266.3-216.1-482.1-482.4-482.5zm187 897.1C886.4 836.8 976.9 686 970.4 474.1 947.8 124.4 525-15.9 429.6 201.5c-45 199.1 226.9 177 334.1 325.2 95.7 135 74.2 268.3-64.6 399.9h0zM320.9 98C133.5 187.8 43.1 338.7 49.6 550.6c22.6 349.6 445.4 490 540.8 272.6 45-199.1-226.8-177-333.9-325.1-95.8-135.3-74.4-268.7 64.4-400.1h0z" fill="#3ea1fc"/></svg>
