<svg xmlns="http://www.w3.org/2000/svg" viewBox="0 0 1024 1024" fill-rule="evenodd"><path d="M608 147.7c-3.1 3.1-5.1 7.1-6 12a27.25 27.25 0 0 0-6-12c-8.9 9.1-19.5 15.1-32 18-30.7 5.1-60 1.1-88-12-9-7.1-15.6-15.7-20-26 38.2-30.5 79.5-35.2 124-14 11.7 9.7 21 21 28 34z" opacity=".993" fill="#84f5fe"/><path d="M704 71.7c54-1.3 74.7 24 62 76-21.9 26.1-47.9 30.8-78 14-29.4-36.2-24.1-66.2 16-90z" fill="#68e8fe"/><path d="M456 127.7c4.4 10.3 11 18.9 20 26 28 13.1 57.3 17.1 88 12 12.5-2.9 23.1-8.9 32-18a27.25 27.25 0 0 1 6 12c.9-4.9 2.9-8.9 6-12 5.6 46.5-13 79.8-56 100-.4-2.5-1.8-4.5-4-6l32-24c-59.2 9.8-111.9-4.2-158-42-5.6 9.4-8.9 9.4-10 0 11.8-18.5 26.5-34.5 44-48z" fill="#58eefe"/><path d="M412 175.7c1.1 9.4 4.4 9.4 10 0 46.1 37.8 98.8 51.8 158 42l-32 24c2.2 1.5 3.6 3.5 4 6-32.5 14.2-64.5 29.5-96 46a202.56 202.56 0 0 0-48 48c-2.7 2.7-5.3 2.7-8 0-8.6-11.2-13.3-23.8-14-38-7.7-46.5 1-89.1 26-128z" opacity=".974" fill="#35e8ff"/><path d="M708 271.7c-67.3 19.6-128.6 50.9-184 94-12.7 11.5-24.1 24.2-34 38-.8-6.2-2.8-11.6-6-16 .7-8.3 2.7-16.3 6-24l26-44c57.8-39.7 121.8-55.7 192-48z" opacity=".986" fill="#acfdfe"/><path d="M708 271.7c31.2 6.9 53.9 24.2 68 52-3.2 4.4-5.2 9.8-6 16-1-7.7-3-15.1-6-22-26.7-4.6-52-.6-76 12-41.8 27.8-77.8 61.8-108 102-4 1.3-6.7 4-8 8-64.8 43.2-94.2 25.8-88-52 3.2 4.4 5.2 9.8 6 16 9.9-13.8 21.3-26.5 34-38 55.4-43.1 116.7-74.4 184-94z" opacity=".997" fill="#bdfefe"/><path d="M348 319.7l-8-4c-25.5 12.7-52.2 16.7-80 12 .7 9.4 0 18.8-2 28-.8-6.2-2.8-11.6-6-16 5-55.1 33-73.1 84-54 8 10 12 21.3 12 34z" fill="#34f6fd"/><path d="M168 331.7c-22.5 30.2-47.9 58.9-76 86-20.7 18.3-44.7 30.3-72 36-2.8 4.3-4.8 8.9-6 14-1.7-5-5-7.7-10-8 .9-5.2-.4-9.2-4-12v-48c32.6-80.3 88.6-102.9 168-68z" fill="#01c3e8"/><path d="M1020 395.7c-72 30.7-126.7 11.4-164-58 10.4-3.1 10.4-5.1 0-6 8-6.7 17.3-11.3 28-14 68-12 113.3 14 136 78z" opacity=".999" fill="#6281f0"/><path d="M776 323.7c3.6 10.4.9 19.7-8 28-31.9 26.6-62.6 54.6-92 84-21.9 9.1-44.6 15.8-68 20-11.8-5.1-21.1-13.1-28-24 30.2-40.2 66.2-74.2 108-102 24-12.6 49.3-16.6 76-12 3 6.9 5 14.3 6 22 .8-6.2 2.8-11.5 6-16z" fill="#aef0fc"/><path d="M856 331.7c10.4.9 10.4 2.9 0 6 37.3 69.4 92 88.7 164 58 0 2.7 1.3 4 4 4v44c-21.9-3.1-43.9-1.8-66 4-64.4-5.5-107.7-36.1-130-92 7-10.9 16.3-18.9 28-24z" opacity=".992" fill="#5a7eef"/><path d="M168 331.7c20.1 10.8 34.8 26.8 44 48-2.1 5.2-7.5 7.8-16 8 .6 4.2-.1 8.2-2 12l-70 66c-30.9 15.7-62.9 29.7-96 42-8.7-15.4-16.7-31.4-24-48 5 .3 8.3 3 10 8 1.2-5.1 3.2-9.7 6-14 27.3-5.7 51.3-17.7 72-36 28.1-27.1 53.5-55.7 76-86z" opacity=".995" fill="#00b4e9"/><path d="M348 319.7l-22 60c-.5 19.1-3.1 37.8-8 56-42.8-17.7-64.8-49.7-66-96 3.2 4.4 5.2 9.8 6 16 2-9.2 2.7-18.6 2-28 27.8 4.7 54.5.7 80-12 2.7 1.5 5.4 2.8 8 4z" opacity=".941" fill="#07e5fe"/><path d="M828 355.7c22.3 55.9 65.6 86.5 130 92 22.1-5.8 44.1-7.1 66-4v4c-5.5 15.1-12.2 29.8-20 44-59.1 10.7-113.8-2-164-38-14.3-15-29-29-44-42 8.7-20.1 19.4-38.7 32-56z" opacity=".996" fill="#4f7aee"/><path d="M212 379.7c9.1 16.9 17.1 34.2 24 52-9 1.1-10.4 5.1-4 12-24.5 15.8-47.1 33.8-68 54-28.2 16.8-57.6 31.4-88 44-10.6 2-21.3 2.7-32 2-8.4-10.4-13.7-22.4-16-36 33.1-12.3 65.1-26.3 96-42l70-66c1.9-3.8 2.6-7.8 2-12 8.5-.1 13.9-2.8 16-8z" opacity=".99" fill="#00a7e9"/><path d="M516 319.7l-26 44c-3.3 7.7-5.3 15.7-6 24-6.2 77.8 23.2 95.2 88 52-8.2 8.2-14.9 17.6-20 28l-36 48c-50.7-.7-101.4 0-152 2-3.8 5.7-7.2 11.7-10 18-1.9-3.8-2.6-7.8-2-12 28.5-59 64.5-113 108-162a281.73 281.73 0 0 1 56-42z" opacity=".994" fill="#0ef0fe"/><path d="M796 411.7c15 13 29.7 27 44 42 50.2 36 104.9 48.7 164 38-9.6 25.8-20.2 51.1-32 76-3.4-1.4-4.7-4-4-8-.3-5.7 1-11.1 4-16-76.4.8-139.7-27.2-190-84l-4 8c-1.6-.9-2.3-2.2-2-4 5.6-17.7 12.2-35.1 20-52z" fill="#4375ed"/><path d="M580 431.7c6.9 10.9 16.2 18.9 28 24-29.3 62.6-62 124-98 184-13.2 38.7-28.5 76.7-46 114 2.2 1.5 3.6 3.5 4 6-10.9 23.2-22.9 45.9-36 68-3 .5-5.6-.1-8-2 10.6-45 23.3-89.7 38-134 28.8-64.4 58.8-128.4 90-192 3.5-10.1 3.5-20.8 0-32 5.1-10.4 11.8-19.8 20-28 1.3-4 4-6.6 8-8z" opacity=".992" fill="#02d5fc"/><path d="M676 435.7c-10.9 10.9-20.2 22.9-28 36-4-.3-7.3 1-10 4-50.2 65.8-92.2 136.4-126 212l-44 72c-.4-2.5-1.8-4.5-4-6 17.5-37.3 32.8-75.3 46-114 36-60 68.7-121.4 98-184 23.4-4.2 46.1-10.9 68-20z" fill="#04defd"/><path d="M968 559.7c-3.6 3-6.2 7-8 12-75.7 3.2-140.4-22.2-194-76-1.7 5-5 7.7-10 8 5.2-14.3 11.9-27.7 20-40-.3 1.8.4 3.1 2 4 1.3-2.7 2.7-5.3 4-8 50.3 56.8 113.6 84.8 190 84-3 5-4.3 10.3-4 16z" fill="#3a72eb"/><path d="M236 431.7l36 80c-5.7-.3-11.1 1-16 4-13.4 11-26.7 22.3-40 34-14.6-2.8-26.6 2.6-36 16-19.5 1.1-36.8 7.8-52 20-21.3 3.8-42.7 7.1-64 10-7.8-16.9-14.4-34.2-20-52 10.7.7 21.4 0 32-2 30.4-12.6 59.8-27.2 88-44 20.9-20.2 43.5-38.2 68-54-6.4-6.9-5-10.9 4-12z" opacity=".991" fill="#009be9"/><path d="M272 511.7l20 48c-10 12.2-23.4 18.2-40 18-13.7 15.3-31.1 21.9-52 20-18.2 15.5-39.6 22.2-64 20-17.8 11.1-36.5 15.8-56 14-4.2-12.5-9.6-24.5-16-36 21.3-2.9 42.7-6.2 64-10 15.2-12.2 32.5-18.9 52-20 9.4-13.4 21.4-18.8 36-16 13.3-11.7 26.6-23 40-34 4.9-2.9 10.3-4.3 16-4z" opacity=".993" fill="#0092e9"/><path d="M516 515.7c-23.7 35.3-46.3 71.3-68 108-45.4-14.4-92.1-19.8-140-16v-12l44-72c-.6 4.2.1 8.2 2 12 2.8-6.3 6.2-12.3 10-18 50.6-2 101.3-2.6 152-2z" opacity=".993" fill="#03eefe"/><path d="M968 559.7c-.7 4 .6 6.6 4 8l-28 64c-73-5.9-137.6-32.6-194-80l-4-12c-2 8.2-6.7 13.5-14 16 9.1-16.9 17.1-34.2 24-52 5-.3 8.3-3 10-8 53.6 53.8 118.3 79.2 194 76 1.8-4.9 4.4-8.9 8-12z" opacity=".995" fill="#306dea"/><path d="M292 559.7c6.4 11.5 11.8 23.5 16 36v12c-7.6 8.6-14.3 18-20 28-1.9-4.8-5.9-7.4-12-8-14.1 1.7-26.1 7.7-36 18l-44 4c-14.1 7.7-28.7 14.4-44 20-18.1 1.3-35.5 2-52 2l-20-40c19.5 1.8 38.2-2.9 56-14 24.4 2.2 45.8-4.5 64-20 20.9 1.9 38.3-4.7 52-20 16.6.2 30-5.8 40-18z" opacity=".997" fill="#008ce9"/><path d="M684 539.7l32 48c7.7 26.2 19.7 50.2 36 72 11.9 29.2 27.9 55.9 48 80-45.4 1.6-89.4 11-132 28 0-2.7-1.3-4-4-4-18.7-28.7-34.7-58.7-48-90 18.1-50.2 40.8-94.9 68-134z" fill="#00cafd"/><path d="M648 471.7l8 16c-24.7 44.1-48.7 88.8-72 134 4.1 4.2 4.7 8.9 2 14-9.6 23.3-20.3 45.9-32 68-5.7 11.4-9.1 23.4-10 36l-32-52c33.8-75.6 75.8-146.2 126-212 2.7-3 6-4.3 10-4z" fill="#0192f3"/><path d="M944 631.7c-10 22-20.6 43.3-32 64-54.3.3-105.6-13.1-154-40-3.1.3-5.1 1.6-6 4-16.3-21.8-28.3-45.8-36-72 7.4-9.4 12.7-20.1 16-32 7.3-2.5 12-7.8 14-16l4 12c56.4 47.5 121 74.1 194 80z" fill="#2469e9"/><path d="M448 623.7c-11 20.7-23 40.7-36 60-1.7 4.8-4.4 8.8-8 12-45.7-8-91-14.7-136-20l20-40c5.7-10 12.4-19.4 20-28 47.9-3.7 94.6 1.6 140 16z" fill="#00e9fe"/><path d="M288 635.7l-20 40c-11.3 14.7-20.7 30.7-28 48-41.7 38.6-81.7 37.3-120-4l-20-48c16.5 0 33.9-.7 52-2 15.3-5.6 29.9-12.3 44-20l44-4c9.9-10.3 21.9-16.3 36-18 6.1.6 10.1 3.3 12 8z" opacity=".997" fill="#0086e8"/><path d="M656 487.7c7.4 9.4 12.7 20.1 16 32-28.1 40.8-52.1 84.2-72 130 4.3 5.3 7 11.3 8 18l-34 88c-4.2 4.8-8.8 8.8-14 12-6.3-8.5-11.6-17.9-16-28 .9-12.6 4.3-24.6 10-36 11.7-22.1 22.4-44.7 32-68 2.7-5.1 2.1-9.8-2-14 23.3-45.2 47.3-89.9 72-134z" fill="#00a6f7"/><path d="M912 695.7c-.8 11-4.8 20.3-12 28-29.4 30.3-62.8 35.6-100 16-20.1-24.1-36.1-50.8-48-80 .9-2.4 2.9-3.7 6-4 48.4 27 99.7 40.3 154 40z" opacity=".996" fill="#1d67e8"/><path d="M672 519.7c7 4.6 11 11.3 12 20-27.2 39.1-49.9 83.8-68 134 13.3 31.3 29.3 61.3 48 90-10.5 5-19.8 11.6-28 20l-4-8c-8.6 12.4-19.2 23-32 32l-4 8c3.5 10.5 6.2 21.2 8 32-16.7-25.4-31.3-52-44-80 5.2-3.2 9.8-7.2 14-12l34-88c-1-6.7-3.7-12.7-8-18 19.9-45.8 43.9-89.1 72-130z" opacity=".989" fill="#00b2fa"/><path d="M268 675.7c45 5.3 90.3 12 136 20-8.3 17.9-17.6 35.2-28 52-43.1-10.9-87.1-16.9-132-18-2.2-1.5-3.6-3.5-4-6 7.3-17.3 16.7-33.3 28-48z" fill="#00e3fc"/><path d="M392 895.7c-5.1 11.8-13.1 21.1-24 28-8.6.4-9.9-2.2-4-8-10.2-5.7-10.2-11.7 0-18-8.4-14.3-8.4-28.9 0-44-2.4-22.4-2.4-43.7 0-64-2.2-2.9-4.8-4.9-8-6 7.7-11.4 14.3-23.4 20-36 10.4-16.8 19.7-34.1 28-52 3.6-3.2 6.3-7.2 8-12 10.3 1.4 17.6-4 22-16-1.9 20.3-7.9 39.7-18 58 1.8 1.7 3.2 3.7 4 6-9.6 21.6-13.6 43.6-12 66-1.9 11.6-5.9 22.3-12 32 3 10.3 4.3 20.3 4 30-2.5 10.7-6.5 20.7-12 30 2.2 1.6 3.6 3.6 4 6z" fill="#00baf7"/><path d="M552 467.7c3.5 11.2 3.5 21.9 0 32-31.2 63.6-61.2 127.6-90 192-14.7 44.3-27.4 89-38 134 2.4 1.9 5 2.5 8 2-12.4 23.5-25.7 46.1-40 68-.4-2.5-1.8-4.5-4-6 5.5-9.3 9.5-19.3 12-30 .3-9.7-1-19.7-4-30 6.1-9.7 10.1-20.4 12-32-1.6-22.4 2.4-44.4 12-66-.8-2.3-2.2-4.3-4-6 10.1-18.3 16.1-37.7 18-58-4.4 12-11.7 17.4-22 16 13-19.3 25-39.3 36-60 21.7-36.7 44.3-72.7 68-108l36-48z" fill="#00c6f9"/><path d="M900 723.7c-9.5 25.8-20.2 51.1-32 76-3.5.5-6.2-.8-8-4l8-16-6-4c-14 8.6-28.6 9.9-44 4a466.69 466.69 0 0 0-126 24c-8.9-11.2-16.9-23.2-24-36 42.6-17 86.6-26.4 132-28 37.2 19.6 70.6 14.3 100-16z" opacity=".995" fill="#01c4fd"/><path d="M120 719.7c38.3 41.3 78.3 42.6 120 4 .4 2.5 1.8 4.5 4 6 44.9 1.1 88.9 7.1 132 18-5.7 12.6-12.3 24.6-20 36l-16 24c-52.8-9.3-106.1-14-160-14-5.9-2.5-11.2-5.9-16-10-2.9 7.7-6.9 9.1-12 4-11.6-21.9-22.3-44.6-32-68z" fill="#00d9fc"/><path d="M868 799.7c-7 18.1-15 35.4-24 52-4.9-6-4.9-12 0-18-9-5.5-17.7-11.5-26-18-46.3 35.4-88.3 31.4-126-12a466.69 466.69 0 0 1 126-24c15.4 5.9 30 4.6 44-4l6 4-8 16c1.8 3.2 4.5 4.6 8 4z" opacity=".997" fill="#00bdfc"/><path d="M340 807.7c-40 52.3-86 57.6-138 16-6.5 4.9-13.9 8.2-22 10 5.9 7 4.6 11.7-4 14a577.08 577.08 0 0 1-24-60c5.1 5.1 9.1 3.7 12-4 4.8 4.1 10.1 7.5 16 10 53.9 0 107.2 4.7 160 14z" opacity=".987" fill="#00cffa"/><path d="M356 783.7c3.2 1.1 5.8 3.1 8 6-2.4 20.3-2.4 41.6 0 64-8.4 15.1-8.4 29.7 0 44-10.2 6.3-10.2 12.3 0 18-5.9 5.8-4.6 8.4 4 8-12.8 13.8-28.8 22.4-48 26-46.6 8.9-84.6-5.1-114-42-11.9-19.1-21.9-39.1-30-60 8.6-2.3 9.9-7 4-14 8.1-1.8 15.5-5.1 22-10 52 41.6 98 36.3 138-16l16-24z" opacity=".996" fill="#01b2f6"/><path d="M664 763.7c2.7 0 4 1.3 4 4 7.1 12.8 15.1 24.8 24 36 37.7 43.4 79.7 47.4 126 12 8.3 6.5 17 12.5 26 18-4.9 6-4.9 12 0 18-7.8 33.1-25.1 59.7-52 80-.6-9.2-5.9-17.2-16-24l-14-28c-11.4-7-22-15-32-24-2.5-3.8-1.8-7.1 2-10-10.2-3-20.2-6.4-30-10l-86 36-12-24c-1.8-10.8-4.5-21.5-8-32 1.3-2.7 2.7-5.3 4-8 12.8-9 23.4-19.6 32-32 1.3 2.7 2.7 5.3 4 8 8.2-8.3 17.5-15 28-20z" fill="#00a7f9"/><path d="M792 931.7c-78.4 39-137.1 19-176-60l86-36c9.8 3.6 19.8 7 30 10-3.8 2.9-4.5 6.2-2 10 10 9 20.6 17 32 24l14 28c10.1 6.9 15.4 14.9 16 24z" opacity=".999" fill="#009ef7"/></svg>
