<svg xmlns="http://www.w3.org/2000/svg" viewBox="0 0 128 128"><path d="M93.5 94.6c10.6 0 20.3-3.3 28.2-9-8.3 22.5-30.2 38.6-56 38.6-32.7 0-59.3-25.8-59.3-57.7S32.9 8.7 65.7 8.7h2.2C54.6 17 45.7 31.5 45.7 48c0 25.7 21.4 46.6 47.8 46.6z" fill="#ffb578"/><path d="M121.6 81.8c-.8 0-1.6.2-2.3.7-7.5 5.3-16.5 8.1-25.8 8.1-24.2 0-43.9-19.1-43.9-42.7 0-14.7 7.6-28.1 20.3-36 1.1-.7 1.8-1.9 1.8-3.2a3.8 3.8 0 0 0-3.8-3.8h-2.3C30.8 4.9 2.5 32.5 2.5 66.5S30.8 128 65.7 128c26.7 0 50.7-16.5 59.6-41 .1-.4.2-.9.2-1.3 0-2.1-1.7-3.9-3.9-3.9zm-55.9 38.5c-30.5 0-55.4-24.2-55.4-53.9 0-26.2 19.4-48.6 45.7-53.1-9 9.4-14.2 21.8-14.2 34.7 0 27.8 23.2 50.4 51.7 50.4 6.7 0 13.2-1.2 19.3-3.6-10 15.8-27.8 25.5-47.1 25.5zm35.6-47.9H77.9c-1.6 0-2.9-1.3-2.9-2.9 0-1 .5-1.9 1.3-2.4L91.6 57H77.9c-1.6 0-2.9-1.3-2.9-2.9s1.3-2.9 2.9-2.9h23.4c1.6 0 2.9 1.3 2.9 2.9 0 1-.5 1.9-1.3 2.4L87.6 66.6h13.7c1.6 0 2.9 1.3 2.9 2.9s-1.3 2.9-2.9 2.9zm13.2-31.1h-14.4c-1.6 0-2.9-1.3-2.9-2.9 0-1 .5-1.9 1.3-2.4l6.3-4.1h-4.7c-1.6 0-2.9-1.3-2.9-2.9s1.3-2.9 2.9-2.9h14.4c1.6 0 2.9 1.3 2.9 2.9 0 1-.5 1.9-1.3 2.4l-6.3 4.1h4.7c1.6 0 2.9 1.3 2.9 2.9s-1.3 2.9-2.9 2.9zm5.6-27.5H108c-1.6 0-2.9-1.3-2.9-2.9 0-1 .5-1.9 1.3-2.4l4.1-2.7H108c-1.6 0-2.9-1.3-2.9-2.9S106.4 0 108 0h12.1c1.6 0 2.9 1.3 2.9 2.9 0 1-.5 1.9-1.3 2.4L117.6 8h2.4c1.6 0 2.9 1.3 2.9 2.9s-1.2 2.9-2.8 2.9z" fill="#444"/></svg>
