<svg xmlns="http://www.w3.org/2000/svg" viewBox="0 0 128 128"><path d="M0 79c0-35.4 28.5-64 63.9-64.1s64.1 28.6 64.1 64c0 9.4-2.1 18.4-5.7 26.5-1 2.3-2.3 4.6-3.6 6.7-.4.6-1 1-1.7 1H11c-.7 0-1.3-.4-1.7-1-1.3-2.2-2.5-4.4-3.6-6.7C2.1 97.4 0 88.4 0 79zm24.4-39.7c-5.2 5.1-9.2 11.1-12 17.8-3 6.9-4.5 14.2-4.5 21.8a55.86 55.86 0 0 0 4.4 21.8c.7 1.6 1.4 3.2 2.2 4.7h98.8c.8-1.5 1.6-3.1 2.2-4.7a55.86 55.86 0 0 0 4.4-21.8 55.86 55.86 0 0 0-4.4-21.8c-2.8-6.7-6.9-12.7-12-17.8-5.1-5.2-11.1-9.2-17.8-12a55.86 55.86 0 0 0-21.8-4.4 55.86 55.86 0 0 0-21.8 4.4c-6.6 2.8-12.6 6.8-17.7 12z" fill="#444"/><path d="M12.4 57.1c2.8-6.7 6.9-12.7 12-17.8 5.1-5.2 11.1-9.2 17.8-12A55.86 55.86 0 0 1 64 22.9a55.86 55.86 0 0 1 21.8 4.4c6.7 2.8 12.7 6.9 17.8 12 5.2 5.1 9.2 11.1 12 17.8a55.86 55.86 0 0 1 4.4 21.8 55.86 55.86 0 0 1-4.4 21.8c-.7 1.6-1.4 3.2-2.2 4.7H14.6c-.8-1.5-1.6-3.1-2.2-4.7A55.86 55.86 0 0 1 8 78.9c-.1-7.6 1.4-14.9 4.4-21.8z" fill="#649950"/><path d="M77.5 60.9C68 81.2 64.9 84.6 64.6 85c-1.5 1.5-3.5 2.3-5.6 2.3s-4.1-.8-5.6-2.3a7.91 7.91 0 0 1 0-11.2c.3-.4 3.8-3.4 24.1-12.9zm0-8c-1.1 0-2.3.2-3.4.8C63.2 58.8 51 64.9 47.8 68.1c-6.2 6.2-6.2 16.3 0 22.5 3.1 3.1 7.2 4.7 11.2 4.7s8.1-1.6 11.2-4.7c3.2-3.2 9.3-15.4 14.4-26.3 2.6-5.6-1.7-11.4-7.1-11.4zM63.9 29.8c-27.2 0-49.5 22.6-49.1 49.8 0 3.6.5 7.2 1.3 10.6.4 1.8 2 3.1 3.9 3.1 2.6 0 4.4-2.4 3.9-4.9-.7-3-1.1-6.2-1.1-9.3A42.04 42.04 0 0 1 26 63c2-5 5-9.4 8.8-13.2S43 43.1 47.9 41a42.04 42.04 0 0 1 32.2 0c4.9 2.1 9.3 5.1 13.1 8.9C97 53.6 99.9 58 102 63a42.04 42.04 0 0 1 3.2 16.1c0 3.2-.4 6.3-1.1 9.3-.6 2.5 1.3 4.9 3.9 4.9 1.8 0 3.5-1.3 3.9-3.1.8-3.6 1.3-7.3 1.3-11.1 0-27.3-22.1-49.3-49.3-49.3z" fill="#444"/></svg>
