<svg xmlns="http://www.w3.org/2000/svg" xmlns:xlink="http://www.w3.org/1999/xlink" viewBox="0 0 1024 1024"><g fill="#f1f3f4"><use xlink:href="#E"/><use xlink:href="#E"/></g><path d="M0 67.4v447h1023.9v-447H0zm395.6 97.8h232.7c25.7 0 46.5 20.8 46.5 46.5s-20.8 46.5-46.5 46.5H395.6c-25.7 0-46.5-20.8-46.5-46.5s20.8-46.5 46.5-46.5z" fill="#e8eaed"/><linearGradient id="A" gradientUnits="userSpaceOnUse" x1="129.071" y1="700.587" x2="894.864" y2="700.587"><stop offset="0" stop-color="#d93025"/><stop offset="1" stop-color="#ea4335"/></linearGradient><path d="M512 444.6c-163.6 0-306.4 88.9-382.9 221l61 186 94.1 105h59.9L512 665.7l382.9-.1c-76.5-132.2-219.3-221-382.9-221z" fill="url(#A)"/><linearGradient id="B" gradientUnits="userSpaceOnUse" x1="-1975.148" y1="1311.336" x2="-1209.193" y2="1311.336" gradientTransform="matrix(-0.5 -0.866 -0.866 0.5 576.9376 -989.2297)"><stop offset="0" stop-color="#1e8e3e"/><stop offset="1" stop-color="#34a853"/></linearGradient><path d="M129.1 665.6c-50.3 87.3-69.8 190.3-53.7 291H297l-167.9-291z" fill="url(#B)"/><linearGradient id="C" gradientUnits="userSpaceOnUse" x1="445.154" y1="2252.805" x2="1211.083" y2="2252.805" gradientTransform="matrix(-0.5 0.866 0.866 0.5 -909.3788 -854.398)"><stop offset="0" stop-color="#fbbc04"/><stop offset="1" stop-color="#fcc934"/></linearGradient><path d="M512 665.7l168 290.9h268.7c16.1-100.7-3.4-203.6-53.7-290.9H512z" fill="url(#C)"/><path d="M512 665.7c-122.1 0-221 99-221 221.1a221.59 221.59 0 0 0 11.3 69.9h419.4c7.3-22 11.3-45.4 11.3-69.9 0-122.2-99-221.1-221-221.1z" fill="#f1f3f4"/><path d="M512 707.1c-99.2 0-179.6 80.4-179.6 179.7.1 24 5 47.8 14.5 69.9h330.3c9.4-22.1 14.4-45.8 14.5-69.9-.1-99.3-80.5-179.7-179.7-179.7z" fill="#1a73e8"/><path d="M0 514.4h1023.9v5.8H0zm0-5.9h1023.9v5.8H0z" opacity=".1" fill="#bdc1c6"/><defs ><path id="E" d="M0 67.4v819.4c0 38.5 31.3 69.9 69.9 69.9h884.3c38.5 0 69.9-31.3 69.9-69.9l-.1-819.4H0zm395.6 97.8h232.7c25.7 0 46.5 20.8 46.5 46.5s-20.8 46.5-46.5 46.5H395.6c-25.7 0-46.5-20.8-46.5-46.5s20.8-46.5 46.5-46.5z"/></defs></svg>
