<svg xmlns="http://www.w3.org/2000/svg" xmlns:xlink="http://www.w3.org/1999/xlink" width="22" height="22" viewBox="0 0 36 36">
    <defs>
        <path id="a" d="M5 18c0-7.18 5.82-13 13-13s13 5.82 13 13-5.82 13-13 13S5 25.18 5 18zm19.645-7.473A9.962 9.962 0 0 0 18 8a9.978 9.978 0 0 0-7.605 3.506c2.35 1.214 1.762 3.408 3.659 5.24 1.429 1.379 3.738 1.735 4.96 3.3.508.65-.716 1.631-.488 2.423l2.005 2.864c.164.573-.283 1.577-.777 2.514a10.015 10.015 0 0 0 7.767-6.781c-1.57-3.406-9.746-1.525-11.143-5.329C14.666 11.075 19.791 15.73 21 15c1.2-.725-.856-2.05 0-3 .617-.685 2.09-.356 3-1 .213-.15.432-.31.645-.473z"/>
    </defs>
    <g fill="none" fill-rule="evenodd">
        <mask id="b" fill="#fff">
            <use xlink:href="#a"/>
        </mask>
        <g fill="#232344" mask="url(#b)">
            <path d="M0 0h36v36H0z"/>
        </g>
    </g>
</svg>
