<svg xmlns="http://www.w3.org/2000/svg" viewBox="0 0 1024 1024"><path d="M99.3 948c-45.5-45.5-32.2-140.2 26.5-253.9 36 100.4 106.1 185.7 197.1 240.7-100.5 45.4-183.8 53-223.6 13.2h0zm845.1-845.1c36 36 34.1 100.4 3.8 183.8-51.2-79.6-127-140.2-216-176.2 94.7-41.7 172.4-47.4 212.2-7.6zM366.5 468.6c5.7-102.3 91-183.8 195.2-183.8s189.5 81.5 195.2 183.8H366.5h0zm407.4 123.2h248.2c1.9-17.1 1.9-34.1 1.9-53.1 0-85.3-22.7-163-62.5-231.2 41.7-108 39.8-200.9-15.2-255.8-51.2-53-191.4-43.6-348.7 26.5-11.4 0-22.7-1.9-36-1.9-216 0-397.9 149.7-449.1 350.6 68.2-87.2 140.2-149.7 235-195.2-9.5 7.6-58.7 58.7-68.2 66.3C27.3 550-52.3 877.8 33 963.1c64.4 64.4 181.9 53.1 318.3-11.4 62.5 32.2 134.5 49.3 210.3 49.3 202.8 0 375.2-130.8 437.7-312.7H749.2c-34.1 64.4-102.3 106.1-180 106.1s-144-43.6-180-106.1c-15.2-28.4-24.6-62.5-24.6-96.6l409.3.1h0z" fill="#2ad536"/></svg>
