<svg xmlns="http://www.w3.org/2000/svg" xmlns:xlink="http://www.w3.org/1999/xlink" viewBox="0 0 1024 1024"><linearGradient id="A" gradientUnits="userSpaceOnUse" x1="234.793" y1="707.971" x2="947.875" y2="707.971"><stop offset="0" stop-color="#0c59a4"/><stop offset="1" stop-color="#114a8b"/></linearGradient><use xlink:href="#H" fill="url(#A)"/><radialGradient id="B" cx="633.381" cy="1331.569" r="381.588" gradientTransform="matrix(1,0,0,0.95,-4.6,-551.44)" gradientUnits="userSpaceOnUse"><stop offset=".7" stop-opacity="0"/><stop offset=".9" stop-opacity=".5"/><stop offset="1"/></radialGradient><use xlink:href="#H" opacity=".35" fill="url(#B)"/><linearGradient id="C" gradientUnits="userSpaceOnUse" x1="610.975" y1="398.759" x2="165.789" y2="883.944"><stop offset="0" stop-color="#1b9de2"/><stop offset=".2" stop-color="#1595df"/><stop offset=".7" stop-color="#0680d7"/><stop offset="1" stop-color="#0078d4"/></linearGradient><use xlink:href="#I" fill="url(#C)"/><radialGradient id="D" cx="-625.419" cy="959.593" r="572.782" gradientTransform="matrix(0.15,-0.99,0.8,0.12,-391.65,61.6)" gradientUnits="userSpaceOnUse"><stop offset=".8" stop-opacity="0"/><stop offset=".9" stop-opacity=".5"/><stop offset="1"/></radialGradient><use xlink:href="#I" opacity=".41" fill="url(#D)"/><radialGradient id="E" cx="384.499" cy="426.222" r="809.575" gradientTransform="matrix(-4.000000e-02 1 -2.13 -8.000000e-02 1026.7902 -160.95)" gradientUnits="userSpaceOnUse"><stop offset="0" stop-color="#35c1f1"/><stop offset=".1" stop-color="#34c1ed"/><stop offset=".2" stop-color="#2fc2df"/><stop offset=".3" stop-color="#2bc3d2"/><stop offset=".7" stop-color="#36c752"/></radialGradient><use xlink:href="#J" fill="url(#E)"/><radialGradient id="F" cx="869.591" cy="-182.801" r="389.188" gradientTransform="matrix(0.28,0.96,-0.78,0.23,574.14,-483.38)" gradientUnits="userSpaceOnUse"><stop offset="0" stop-color="#66eb6e"/><stop offset="1" stop-color="#66eb6e" stop-opacity="0"/></radialGradient><use xlink:href="#J" fill="url(#F)"/><defs ><path id="H" d="M924.4 762.2c-13.7 7.1-27.9 13.4-42.4 18.8-45.9 17.1-94.6 25.8-143.6 25.6-189.2 0-354-130-354-297.2.5-45.6 25.6-87.3 65.6-109.2-171.2 7.2-215.2 185.6-215.2 290 0 296 272.4 325.6 331.2 325.6 31.6 0 79.2-9.2 108-18.4l5.2-1.6c110.2-38.1 204.2-112.6 266.4-211.2 4.6-7.6 2.1-17.4-5.4-22-4.9-2.9-10.9-3.1-15.8-.4h0z"/><path id="I" d="M422.8 965.4a316.62 316.62 0 0 1-90.8-85.2c-105.2-143.9-73.7-345.9 70.2-451.1 15.1-11 31-20.7 47.8-28.9 12.8-6 34-16.4 62.4-16 40.5.3 78.5 19.6 102.8 52 16.1 21.6 24.9 47.8 25.2 74.8 0-.8 98-318.4-320-318.4C144.8 192.6.4 359 .4 505.4a520.54 520.54 0 0 0 48.4 224c110.4 235.1 379.3 350.2 625.6 268-84.4 26.6-176.2 15-251.2-32h-.4z"/><path id="J" d="M609.6 595.4c-3.6 4-13.6 10-13.6 22.4 0 10.4 6.8 20.8 19.2 29.2 57.2 40 165.6 34.4 166 34.4 42.6 0 84.5-11.5 121.2-33.2 75.2-44 121.5-124.5 121.6-211.6 1.2-89.6-32-149.2-45.2-175.6C893.6 95.4 710.8.2 512 .2 232 .2 3.9 225 0 505c2-146 147.2-264 320-264 14 0 94 1.2 168 40 52 25.8 95 66.7 123.6 117.2 24.4 42.4 28.8 96.4 28.8 118s-10.8 53.2-31.2 79.6l.4-.4z"/></defs></svg>
