<svg xmlns="http://www.w3.org/2000/svg" viewBox="0 0 1024 1024"><circle cx="512" cy="512" r="512" fill="#f4f4f4"/><path d="M510.3 889c-9.3 0-18.5.8-27.7-.1-106.4-11.1-138.5-66-94.6-162.8 17.5-38.7 38.9-75.4 71.9-103.2 33.7-28.3 67.1-29.5 100.3-1 50.8 43.8 80.1 101.1 93.2 166.2 7.2 35.4-9.2 61.6-40 78.8-32 17.8-66.8 23.8-103.1 22.1h0zM282.1 592.3c-116-.2-184.1-85.6-160.7-186.2l34.7-146.3c4.1-17.6 10.7-24.8 29.2-12.6 41.3 26.9 88 41.3 134.8 55.5 51.7 15.7 95.1 45.8 129.1 88.1 43.3 54 36.3 110.1-19.6 150.8-47.3 34.2-101.3 50-147.5 50.7h0z"/><circle cx="290.7" cy="444.2" r="62.1" fill="#94ff00"/><circle cx="290.7" cy="444.2" r="29.1" fill="#151515"/><path d="M596.5 541.5c-56-40.7-63.1-96.8-19.6-150.8 34-42.2 77.4-72.4 129.1-88.1 46.9-14.3 93.5-28.6 134.8-55.5 18.5-12.1 25.1-4.9 29.2 12.6L904.7 406C928.1 506.7 860 592 744 592.2c-46.2-.6-100.2-16.4-147.5-50.7z"/><circle cx="722.7" cy="444.2" r="62.1" fill="#94ff00"/><circle cx="722.7" cy="444.2" r="29.1" fill="#151515"/></svg>
