<svg xmlns="http://www.w3.org/2000/svg" viewBox="0 0 1024 1024"><path d="M960 750.5c-1.4 3.9-23 74-76.1 146.2-46 62.2-93.5 124.9-168.5 126-73.8 1.2-97.4-41-181.7-41-84.2 0-110.6 39.9-180.3 42.2-72.1 2.7-127.6-68-173.7-129.9-94.3-126.7-166.8-359.3-69.5-515.1 47.9-78 134-127.5 227.7-128.9 70.6-1.2 137.9 44.5 180.8 44.5 44.1 0 125.4-55.4 211.2-47.1 35.9 1.4 136.4 14 201.1 101.3-5.1 3.2-120.2 66.4-118.9 195.1C813.8 699.1 958.4 750 960 750.5M673.7 164.2C712.4 120.3 737.8 59.9 731.1 0c-55.2 2-122.5 34.1-162.5 77.8-35.4 38.1-66.5 99.4-57.8 158.6 61.4 3.5 124.4-29.9 162.9-72.2" fill="#666"/></svg>
