<svg xmlns="http://www.w3.org/2000/svg" viewBox="0 0 1024 1024"><linearGradient id="A" gradientUnits="userSpaceOnUse" x1="426.598" y1="16.698" x2="426.598" y2="1009.098"><stop offset=".3" stop-color="#ff1b2d"/><stop offset=".438" stop-color="#fa1a2c"/><stop offset=".594" stop-color="#ed1528"/><stop offset=".758" stop-color="#d60e21"/><stop offset=".927" stop-color="#b70519"/><stop offset="1" stop-color="#a70014"/></linearGradient><path d="M343.5 800.5c-56.6-66.8-93.3-165.6-95.8-276.5v-24.1c2.5-110.9 39.2-209.6 95.8-276.5C416.9 128.1 526.1 67.6 648 67.6c75 0 145.2 22.9 205.2 62.7C763.1 49.7 644.2.5 513.9 0H512C229.2 0 0 229.2 0 512c0 274.6 216.2 498.6 487.6 511.4a493.62 493.62 0 0 0 24.4.6c131.1 0 250.6-49.3 341.2-130.3-60 39.8-130.2 62.7-205.2 62.7-121.9 0-231.1-60.5-304.5-155.9h0z" fill="url(#A)"/><linearGradient id="B" gradientUnits="userSpaceOnUse" x1="683.727" y1="75.185" x2="683.727" y2="952.917"><stop offset="0" stop-color="#9c0000"/><stop offset=".7" stop-color="#ff4b4b"/></linearGradient><path d="M343.5 223.5c47-55.5 107.7-88.9 174-88.9 149 0 269.9 169 269.9 377.4s-120.9 377.5-270 377.5c-66.3 0-127-33.4-173.9-88.9C417 896 526.1 956.5 648.1 956.5c75 0 145.2-22.9 205.2-62.7C958 800 1024 663.7 1024 512s-66-287.9-170.8-381.7C793.2 90.5 723 67.6 648 67.6c-121.9 0-231.1 60.5-304.5 155.9h0z" fill="url(#B)"/></svg>
