<svg xmlns="http://www.w3.org/2000/svg" viewBox="0 0 1024 1024"><path d="M0 413.6v-23.9C4.6 357 29.7 350.6 56 346c59.4-10.2 116.4-27.2 170.5-54.4 102.5-51.8 177-130.8 232-229.8 2.6-4.7 4.9-9.4 7.7-14 23.5-38.8 72.6-39.9 96.4-.9 15.6 25.6 29.3 52.1 46.1 77.2 80.9 121.2 194 194.8 335.4 226.5 9.7 2.2 19.4 5 29.1 7 29 5.8 48.4 20.5 50.8 52.1v12c-3.3 33.2-31.6 49.4-50.3 71.6-84 99.7-133.4 211.9-133.5 344 0 35.3 1.5 70.6 4.4 105.6 4 49.6-41.3 78-86.6 55.1-51.3-25.9-104.6-46.2-161.3-56.4-116.8-21-227.8-3.8-334.3 46.8-8.4 4-16.5 8.6-25.6 11.1-43.2 12.1-78.7-18.4-71.8-62.7 3-19 5.8-37.9 7.6-57.2 14-150.4-30.1-282.2-126.5-397.5-10.2-12.3-19.8-25.1-31.7-35.8-10-9.1-9.3-22.1-14.4-32.7h0z" fill="#f2dc68"/><path d="M258.6 501.5c8.9-3.8 12.4 3.1 18.2 4 6 1 13.3 8.5 17.5.7 3.4-6.2 5.4-14.9-1.8-22.1-5.8-5.7-13.7-11-11.3-23.6 12.1 16.7 22.6 20.5 39.4 4.8 17.1-15.9 45.4-9.3 62.6 9.4 15.9 17.3 17.2 44.3 3 62.3-15.7 19.9-43.2 28.9-62 14.8-22-16.2-39.6-38.5-65.6-50.3h0z" fill="#9a6913"/><path d="M695 638c18 2.5 27.2 10.7 37.5 15.8 2.6 1.4 6.5 2.9 4.8 7.1-1.6 3.8-4.9 4-8.4 2.3-10.7-5.6-13.6 1.5-17 9.6C648.2 828.3 447.6 858 340 728.2c-6.5-7.9-9.3-23-26.7-17.8-6 1.8-6.6-5.5-1.7-9.1 6-4.2 12.6-7.6 19.2-10.4 4.4-1.8 7.9-9.9 13.5-4.5 7.3 7-3 7.7-5.2 11.3-3.8 6.3 2 9.6 4.7 13.6 51.5 74.4 158.1 104.7 241.8 70.1 51.6-21.4 88.6-57.1 112.7-107.1 5.5-11 9-21.5-3.3-36.3h0z" fill="#9b6a14"/><path d="M680.6 569.1c-1.1-3.1-3-6.2-3.3-9.3-.8-7.5-4.5-10.1-11.8-10.1-6.8 0-9.2 3.2-10.7 9.2-1.3 5.4-1.8 11.5-7.4 15.7-4.9-10 8.1-21.8-6.1-29.2-19.9-10.5-12.3 19.1-26.5 17.1-1.8-10.4 14.9-23.6-1.6-31.2-10.2-4.7-16.7 15.9-29.9 9.2.1-.3 0-1 .3-1.5 17-19.1 32.1-27.6 58.6-9.1 20.3 14.2 47.8 9.1 68.3-9.4 7.9-7.1 12.1-7.9 18.1 2.1 5.3 8.9 16.5 12 26.9 18.9-10.7 2.7-17-1-23.1-4.4-5.6-3-10.2-9.1-17.1-1.8-6.1 6.3-3.2 12.1-.1 18.2 1.4 2.9 2.9 5.6 5.6 10.8-14.8-1.5-13.9-24.6-30.4-17.9-7.6 3.1-6.2 9.3-6.4 15 2.2 4 3.4 7.6-3.4 7.7z" fill="#9c6d16"/><path d="M680.6 569.1l3.4-7.8c3.1 4.6 7.2 10.7 2.9 14.7-2.9 2.7-4.8-3.8-6.3-6.9h0z" fill="#ae8527"/></svg>
