<svg xmlns="http://www.w3.org/2000/svg" viewBox="0 0 1024 1024"><path d="M512 1024c224 0 349.1 0 430.4-81.3S1024 736 1024 512s0-348.8-81.6-430.1S736 0 512 0 162.9 0 81.6 81.3 0 288 0 512s0 348.8 81.6 430.1S288 1024 512 1024z" fill="#ef3939"/><path d="M781.8 241C632.1 90.7 388.9 90.3 238.7 240s-150.7 392.8-1 543 392.8 150.7 543.1 1l1-1c149.3-149.8 149.3-392.2 0-542zm-23.1 175L569 747.2c-10.2 19.8-29.9 32.9-52.2 34.6-24.7 2.7-48.6-10-60.2-32L337.6 544 265 416c-17.7-30.6-7.3-69.7 23.3-87.5 8.7-5.1 18.5-8 28.6-8.5 24.1-1.9 47.1 10.7 58.6 32l53.1 92.2 38.4 66.2c16.9 30.8 48.7 50.5 83.8 51.8 54.3 3.2 101.6-36.8 107.5-90.9v-10.6c.1-16.5-3.6-32.8-10.9-47.7-15.4-31.8-2-70.1 29.8-85.5s70.1-2 85.5 29.8c2.5 5.3 4.4 10.9 5.4 16.6 1.5 14.8-1.7 29.5-9.4 42.1z" fill="#fff"/></svg>
